<svg width="18" height="15" viewBox="0 0 18 15" fill="none" xmlns="http://www.w3.org/2000/svg">
<path d="M17.217 7.4L14.9587 3.66667C14.8132 3.41477 14.6044 3.20532 14.353 3.05912C14.1015 2.91293 13.8162 2.83509 13.5253 2.83333H11.5003V1.16667C11.5003 0.945652 11.4125 0.73369 11.2562 0.57741C11.1 0.42113 10.888 0.333332 10.667 0.333332H2.33366C1.89163 0.333332 1.46771 0.508927 1.15515 0.821487C0.842587 1.13405 0.666992 1.55797 0.666992 2V10.3333C0.667292 10.6256 0.744444 10.9127 0.89071 11.1657C1.03698 11.4187 1.24721 11.6289 1.50033 11.775C1.47049 12.5485 1.74916 13.3023 2.27505 13.8703C2.80093 14.4384 3.53094 14.7743 4.30449 14.8042C5.07804 14.834 5.83176 14.5553 6.39984 14.0294C6.96792 13.5036 7.30382 12.7735 7.33366 12H9.91699C10.0091 12.6972 10.3515 13.3373 10.8804 13.8008C11.4093 14.2644 12.0887 14.52 12.792 14.52C13.4953 14.52 14.1747 14.2644 14.7035 13.8008C15.2324 13.3373 15.5748 12.6972 15.667 12C16.109 12 16.5329 11.8244 16.8455 11.5118C17.1581 11.1993 17.3337 10.7754 17.3337 10.3333V7.83333C17.3323 7.6813 17.2922 7.53213 17.217 7.4ZM4.41699 12.8333C4.16977 12.8333 3.92809 12.76 3.72253 12.6227C3.51697 12.4853 3.35675 12.2901 3.26214 12.0617C3.16753 11.8333 3.14278 11.5819 3.19101 11.3395C3.23924 11.097 3.35829 10.8743 3.53311 10.6994C3.70792 10.5246 3.93065 10.4056 4.17313 10.3574C4.41561 10.3091 4.66694 10.3339 4.89535 10.4285C5.12375 10.5231 5.31898 10.6833 5.45633 10.8889C5.59368 11.0944 5.66699 11.3361 5.66699 11.5833C5.66699 11.9149 5.5353 12.2328 5.30088 12.4672C5.06646 12.7016 4.74851 12.8333 4.41699 12.8333ZM9.00033 6.16667H7.33366V7.83333H5.66699V6.16667H4.00033V4.5H5.66699V2.83333H7.33366V4.5H9.00033V6.16667ZM12.7503 12.8333C12.5031 12.8333 12.2614 12.76 12.0559 12.6227C11.8503 12.4853 11.6901 12.2901 11.5955 12.0617C11.5009 11.8333 11.4761 11.5819 11.5243 11.3395C11.5726 11.097 11.6916 10.8743 11.8664 10.6994C12.0413 10.5246 12.264 10.4056 12.5065 10.3574C12.7489 10.3091 13.0003 10.3339 13.2287 10.4285C13.4571 10.5231 13.6523 10.6833 13.7897 10.8889C13.927 11.0944 14.0003 11.3361 14.0003 11.5833C14.0003 11.9149 13.8686 12.2328 13.6342 12.4672C13.3998 12.7016 13.0818 12.8333 12.7503 12.8333ZM11.5003 7V4.5H13.5253L15.0253 7H11.5003Z" fill="white"/>
</svg>
