<svg width="17" height="16" viewBox="0 0 17 16" fill="none" xmlns="http://www.w3.org/2000/svg">
<path d="M2.96545 0C1.34707 0 0.0439453 1.30312 0.0439453 2.9215V13.0785C0.0439453 14.6969 1.34707 16 2.96545 16H8.47046V9.74501H6.81646V7.49301H8.47046V5.56901C8.47046 4.05741 9.44772 2.6695 11.699 2.6695C12.6104 2.6695 13.2845 2.75701 13.2845 2.75701L13.2315 4.86002C13.2315 4.86002 12.544 4.85352 11.7939 4.85352C10.9821 4.85352 10.8519 5.22757 10.8519 5.84853V7.49302H13.2959L13.1895 9.74502H10.8519V16H13.1224C14.7408 16 16.0439 14.6969 16.0439 13.0785V2.92152C16.0439 1.30314 14.7408 1.6e-05 13.1224 1.6e-05H2.96543L2.96545 0Z" fill="white"/>
</svg>
