<svg width="19" height="19" viewBox="0 0 19 19" fill="none" xmlns="http://www.w3.org/2000/svg">
<path d="M15.9192 8C16.5499 8.36318 17.0613 8.90203 17.391 9.55085C17.7207 10.1997 17.8545 10.9304 17.7761 11.6539C17.6976 12.3775 17.4103 13.0626 16.9492 13.6256C16.4881 14.1887 15.8731 14.6054 15.1792 14.825C14.934 15.9379 14.316 16.9337 13.4277 17.6474C12.5393 18.3612 11.4338 18.7502 10.2942 18.75H8.41922C8.25345 18.75 8.09448 18.6842 7.97727 18.5669C7.86006 18.4497 7.79422 18.2908 7.79422 18.125C7.79422 17.9592 7.86006 17.8003 7.97727 17.6831C8.09448 17.5658 8.25345 17.5 8.41922 17.5H10.2942C11.07 17.5002 11.8267 17.2599 12.4603 16.8122C13.0938 16.3645 13.573 15.7313 13.8317 15H13.4192C13.2535 15 13.0945 14.9342 12.9773 14.8169C12.8601 14.6997 12.7942 14.5408 12.7942 14.375V8.125C12.7942 7.95924 12.8601 7.80027 12.9773 7.68306C13.0945 7.56585 13.2535 7.5 13.4192 7.5H14.0442C14.2467 7.5 14.4455 7.51625 14.6405 7.5475C14.4998 6.16112 13.8494 4.87631 12.8155 3.94203C11.7816 3.00774 10.4377 2.49049 9.04422 2.49049C7.65071 2.49049 6.30681 3.00774 5.2729 3.94203C4.23899 4.87631 3.58868 6.16112 3.44797 7.5475C3.64515 7.51592 3.84452 7.50003 4.04422 7.5H4.66922C4.83498 7.5 4.99395 7.56585 5.11116 7.68306C5.22837 7.80027 5.29422 7.95924 5.29422 8.125V14.375C5.29422 14.5408 5.22837 14.6997 5.11116 14.8169C4.99395 14.9342 4.83498 15 4.66922 15H4.04422C3.21794 15.0009 2.4145 14.7289 1.75871 14.2263C1.10293 13.7236 0.631522 13.0184 0.417735 12.2203C0.203948 11.4221 0.259752 10.5757 0.576477 9.81257C0.893201 9.04941 1.45311 8.41222 2.16922 8C2.16922 6.17664 2.89354 4.42795 4.18286 3.13864C5.47217 1.84933 7.22085 1.125 9.04422 1.125C10.8676 1.125 12.6163 1.84933 13.9056 3.13864C15.1949 4.42795 15.9192 6.17664 15.9192 8ZM4.04422 8.75C3.38117 8.75 2.74529 9.01339 2.27645 9.48223C1.80761 9.95107 1.54422 10.587 1.54422 11.25C1.54422 11.913 1.80761 12.5489 2.27645 13.0178C2.74529 13.4866 3.38117 13.75 4.04422 13.75V8.75ZM16.5442 11.25C16.5442 10.587 16.2808 9.95107 15.812 9.48223C15.3431 9.01339 14.7073 8.75 14.0442 8.75V13.75C14.7073 13.75 15.3431 13.4866 15.812 13.0178C16.2808 12.5489 16.5442 11.913 16.5442 11.25Z" fill="white" stroke="white" stroke-width="0.5"/>
</svg>
