<svg width="16" height="16" viewBox="0 0 16 16" fill="none" xmlns="http://www.w3.org/2000/svg">
<path d="M8.04355 5.39707C6.60996 5.39707 5.44003 6.56699 5.44003 8.00058C5.44003 9.43417 6.60996 10.6041 8.04355 10.6041C9.47714 10.6041 10.6471 9.43417 10.6471 8.00058C10.6471 6.56699 9.47714 5.39707 8.04355 5.39707ZM15.8521 8.00058C15.8521 6.92246 15.8619 5.8541 15.8014 4.77792C15.7408 3.52792 15.4557 2.41855 14.5416 1.50449C13.6256 0.588471 12.5182 0.305268 11.2682 0.244722C10.19 0.184175 9.12167 0.19394 8.0455 0.19394C6.96738 0.19394 5.89902 0.184175 4.82285 0.244722C3.57285 0.305268 2.46347 0.590425 1.54941 1.50449C0.633393 2.4205 0.35019 3.52792 0.289643 4.77792C0.229097 5.85605 0.238862 6.92441 0.238862 8.00058C0.238862 9.07675 0.229097 10.1471 0.289643 11.2232C0.35019 12.4732 0.635347 13.5826 1.54941 14.4967C2.46542 15.4127 3.57285 15.6959 4.82285 15.7564C5.90097 15.817 6.96933 15.8072 8.0455 15.8072C9.12363 15.8072 10.192 15.817 11.2682 15.7564C12.5182 15.6959 13.6275 15.4107 14.5416 14.4967C15.4576 13.5807 15.7408 12.4732 15.8014 11.2232C15.8639 10.1471 15.8521 9.07871 15.8521 8.00058ZM8.04355 12.0064C5.82675 12.0064 4.03769 10.2174 4.03769 8.00058C4.03769 5.78378 5.82675 3.99472 8.04355 3.99472C10.2603 3.99472 12.0494 5.78378 12.0494 8.00058C12.0494 10.2174 10.2603 12.0064 8.04355 12.0064ZM12.2135 4.76621C11.6959 4.76621 11.2779 4.34824 11.2779 3.83066C11.2779 3.31308 11.6959 2.89511 12.2135 2.89511C12.7311 2.89511 13.149 3.31308 13.149 3.83066C13.1492 3.95356 13.1251 4.07528 13.0781 4.18886C13.0312 4.30243 12.9623 4.40563 12.8753 4.49253C12.7884 4.57944 12.6852 4.64834 12.5717 4.69531C12.4581 4.74227 12.3364 4.76636 12.2135 4.76621Z" fill="white"/>
</svg>
