<svg width="17" height="16" viewBox="0 0 17 16" fill="none" xmlns="http://www.w3.org/2000/svg">
<path d="M14.8442 3.69988C12.4442 -0.000122309 7.54421 -1.10012 3.74421 1.19988C0.0442131 3.49988 -1.15579 8.49988 1.24421 12.1999L1.44421 12.4999L0.644213 15.4999L3.64421 14.6999L3.94421 14.8999C5.24421 15.5999 6.64421 15.9999 8.04421 15.9999C9.54421 15.9999 11.0442 15.5999 12.3442 14.7999C16.0442 12.3999 17.1442 7.49988 14.8442 3.69988ZM12.7442 11.3999C12.3442 11.9999 11.8442 12.3999 11.1442 12.4999C10.7442 12.4999 10.2442 12.6999 8.24421 11.8999C6.54421 11.0999 5.14421 9.79988 4.14421 8.29988C3.54421 7.59988 3.24421 6.69988 3.14421 5.79988C3.14421 4.99988 3.44421 4.29988 3.94421 3.79988C4.14421 3.59988 4.34421 3.49988 4.54421 3.49988H5.04421C5.24421 3.49988 5.44421 3.49988 5.54421 3.89988C5.74421 4.39988 6.24421 5.59988 6.24421 5.69988C6.34421 5.79988 6.34421 5.99988 6.24421 6.09988C6.34421 6.29988 6.24421 6.49988 6.14421 6.59988C6.04421 6.69988 5.94421 6.89988 5.84421 6.99988C5.64421 7.09988 5.54421 7.29988 5.64421 7.49988C6.04421 8.09988 6.54421 8.69988 7.04421 9.19988C7.64421 9.69988 8.24421 10.0999 8.94421 10.3999C9.14421 10.4999 9.34421 10.4999 9.44421 10.2999C9.54421 10.0999 10.0442 9.59988 10.2442 9.39988C10.4442 9.19988 10.5442 9.19988 10.7442 9.29988L12.3442 10.0999C12.5442 10.1999 12.7442 10.2999 12.8442 10.3999C12.9442 10.6999 12.9442 11.0999 12.7442 11.3999Z" fill="#F6F6F6"/>
</svg>
